<svg width="453" height="203" viewBox="0 0 453 203" fill="none" xmlns="http://www.w3.org/2000/svg">
<g filter="url(#filter0_d_1437_4203)">
<rect x="40" y="40" width="353" height="103" rx="15" fill="white"/>
</g>
<path d="M96 93C106.493 93 115 84.4934 115 74C115 63.5066 106.493 55 96 55C85.5066 55 77 63.5066 77 74C77 84.4934 85.5066 93 96 93Z" fill="#7541C8"/>
<path d="M120 129C137.121 129 151 115.121 151 98C151 80.8792 137.121 67 120 67C102.879 67 89 80.8792 89 98C89 115.121 102.879 129 120 129Z" fill="#D6BCFF"/>
<path d="M170.614 71.4678C170.614 77.1221 173.168 79.9492 178.275 79.9492C183.275 79.9492 185.775 77.1221 185.775 71.4678C185.775 65.8916 183.275 63.1035 178.275 63.1035C173.168 63.1035 170.614 65.8916 170.614 71.4678ZM167.758 71.5557C167.758 64.4561 171.264 60.9062 178.275 60.9062C185.18 60.9062 188.632 64.4561 188.632 71.5557C188.632 78.6162 185.18 82.1465 178.275 82.1465C171.264 82.1465 167.758 78.6162 167.758 71.5557ZM195.312 78.8652C196.376 79.3926 197.562 79.6562 198.871 79.6562C202.064 79.6562 203.661 77.7373 203.661 73.8994C203.661 70.5498 202.074 68.875 198.9 68.875C197.533 68.875 196.337 68.9922 195.312 69.2266V78.8652ZM192.602 67.249C194.643 66.8291 196.752 66.6191 198.93 66.6191C203.861 66.6191 206.327 69.0557 206.327 73.9287C206.327 79.3096 203.847 82 198.886 82C197.655 82 196.464 81.7559 195.312 81.2676V87.5664H192.602V67.249ZM212.714 78.8652C213.778 79.3926 214.965 79.6562 216.273 79.6562C219.467 79.6562 221.063 77.7373 221.063 73.8994C221.063 70.5498 219.477 68.875 216.303 68.875C214.936 68.875 213.739 68.9922 212.714 69.2266V78.8652ZM210.004 67.249C212.045 66.8291 214.154 66.6191 216.332 66.6191C221.264 66.6191 223.729 69.0557 223.729 73.9287C223.729 79.3096 221.249 82 216.288 82C215.058 82 213.866 81.7559 212.714 81.2676V87.5664H210.004V67.249ZM229.384 74.251C229.384 77.9521 230.922 79.8027 233.998 79.8027C237.074 79.8027 238.612 77.9521 238.612 74.251C238.612 70.6279 237.074 68.8164 233.998 68.8164C230.922 68.8164 229.384 70.6279 229.384 74.251ZM226.674 74.3096C226.674 69.1826 229.115 66.6191 233.998 66.6191C238.881 66.6191 241.322 69.1826 241.322 74.3096C241.322 79.4268 238.881 81.9854 233.998 81.9854C229.135 81.9854 226.693 79.4268 226.674 74.3096ZM244.984 82V66.6191H246.815L247.299 68.582C248.646 67.2734 250.268 66.6191 252.162 66.6191V68.875C250.326 68.875 248.837 69.5244 247.694 70.8232V82H244.984ZM254.887 64.1289H256.586L257.172 66.6191H261.332V68.8164H257.597V77.6494C257.597 79.085 258.217 79.8027 259.457 79.8027H261.332V82H258.754C256.176 82 254.887 80.6182 254.887 77.8545V64.1289ZM278.046 66.6191V82H276.186L275.717 80.0371C273.852 81.3457 271.977 82 270.092 82C266.557 82 264.789 80.0908 264.789 76.2725V66.6191H267.499V76.3164C267.499 78.6016 268.632 79.7441 270.897 79.7441C272.45 79.7441 273.93 79.0947 275.336 77.7959V66.6191H278.046ZM282.455 82V66.6191H284.286L284.77 68.582C286.342 67.2734 288.07 66.6191 289.955 66.6191C293.793 66.6191 295.712 68.5283 295.712 72.3467V82H293.002V72.3027C293.002 70.0176 291.864 68.875 289.589 68.875C288.036 68.875 286.562 69.5244 285.165 70.8232V82H282.455ZM303.124 66.6191V82H300.414V66.6191H303.124ZM303.124 61.0527V63.6162H300.414V61.0527H303.124ZM307.826 64.1289H309.525L310.111 66.6191H314.271V68.8164H310.536V77.6494C310.536 79.085 311.156 79.8027 312.396 79.8027H314.271V82H311.693C309.115 82 307.826 80.6182 307.826 77.8545V64.1289ZM320.731 66.6191V82H318.021V66.6191H320.731ZM320.731 61.0527V63.6162H318.021V61.0527H320.731ZM331.776 66.6191C336.151 66.6191 338.339 68.7822 338.339 73.1084C338.339 73.7236 338.295 74.3828 338.207 75.0859H327.411C327.411 78.2305 329.247 79.8027 332.919 79.8027C334.667 79.8027 336.22 79.6074 337.577 79.2168V81.4141C336.22 81.8047 334.569 82 332.626 82C327.343 82 324.701 79.3779 324.701 74.1338C324.701 69.124 327.06 66.6191 331.776 66.6191ZM327.411 72.8301H335.731C335.673 70.1348 334.354 68.7871 331.776 68.7871C329.042 68.7871 327.587 70.1348 327.411 72.8301ZM341.84 81.2676V78.9238C343.646 79.5098 345.473 79.8027 347.318 79.8027C349.77 79.8027 350.995 79.0703 350.995 77.6055C350.995 76.2383 350.141 75.5547 348.432 75.5547H346.234C342.914 75.5547 341.254 74.041 341.254 71.0137C341.254 68.084 343.388 66.6191 347.655 66.6191C349.491 66.6191 351.312 66.8633 353.119 67.3516V69.6953C351.312 69.1094 349.491 68.8164 347.655 68.8164C345.097 68.8164 343.817 69.5488 343.817 71.0137C343.817 72.3809 344.623 73.0645 346.234 73.0645H348.432C351.947 73.0645 353.705 74.5781 353.705 77.6055C353.705 80.5352 351.576 82 347.318 82C345.473 82 343.646 81.7559 341.84 81.2676Z" fill="black"/>
<rect x="176" y="102" width="90" height="23" rx="3" fill="#19212E"/>
<path d="M191.988 108.621V114.586C191.988 116.195 191.041 117 189.146 117V116.121C190.318 116.121 190.904 115.609 190.904 114.586V108.621H191.988ZM199.225 110.848V117H198.48L198.293 116.215C197.547 116.738 196.797 117 196.043 117C194.629 117 193.922 116.236 193.922 114.709V110.848H195.006V114.727C195.006 115.641 195.459 116.098 196.365 116.098C196.986 116.098 197.578 115.838 198.141 115.318V110.848H199.225ZM200.93 116.707V115.77C201.652 116.004 202.383 116.121 203.121 116.121C204.102 116.121 204.592 115.828 204.592 115.242C204.592 114.695 204.25 114.422 203.566 114.422H202.688C201.359 114.422 200.695 113.816 200.695 112.605C200.695 111.434 201.549 110.848 203.256 110.848C203.99 110.848 204.719 110.945 205.441 111.141V112.078C204.719 111.844 203.99 111.727 203.256 111.727C202.232 111.727 201.721 112.02 201.721 112.605C201.721 113.152 202.043 113.426 202.688 113.426H203.566C204.973 113.426 205.676 114.031 205.676 115.242C205.676 116.414 204.824 117 203.121 117C202.383 117 201.652 116.902 200.93 116.707ZM207.141 109.852H207.82L208.055 110.848H209.719V111.727H208.225V115.26C208.225 115.834 208.473 116.121 208.969 116.121H209.719V117H208.688C207.656 117 207.141 116.447 207.141 115.342V109.852ZM220.477 116.672C219.801 116.93 219.072 117.059 218.291 117.059C215.256 117.059 213.738 115.604 213.738 112.693C213.738 109.939 215.203 108.562 218.133 108.562C218.973 108.562 219.754 108.68 220.477 108.914V109.852C219.754 109.578 219.012 109.441 218.25 109.441C215.965 109.441 214.822 110.525 214.822 112.693C214.822 115.018 215.947 116.18 218.197 116.18C218.557 116.18 218.955 116.133 219.393 116.039V113.191H220.477V116.672ZM222.152 117V110.848H222.885L223.078 111.633C223.617 111.109 224.266 110.848 225.023 110.848V111.75C224.289 111.75 223.693 112.01 223.236 112.529V117H222.152ZM225.82 115.143C225.82 113.881 226.652 113.25 228.316 113.25C228.852 113.25 229.387 113.289 229.922 113.367V112.787C229.922 112.08 229.369 111.727 228.264 111.727C227.631 111.727 226.982 111.824 226.318 112.02V111.141C226.982 110.945 227.631 110.848 228.264 110.848C230.092 110.848 231.006 111.484 231.006 112.758V117H230.396L230.021 116.391C229.408 116.797 228.74 117 228.018 117C226.553 117 225.82 116.381 225.82 115.143ZM228.316 114.129C227.375 114.129 226.904 114.461 226.904 115.125C226.904 115.789 227.275 116.121 228.018 116.121C228.768 116.121 229.402 115.922 229.922 115.523V114.246C229.387 114.168 228.852 114.129 228.316 114.129ZM233.854 115.928C234.209 116.041 234.641 116.098 235.148 116.098C236.516 116.098 237.199 115.318 237.199 113.76C237.199 112.443 236.58 111.785 235.342 111.785C234.779 111.785 234.283 111.891 233.854 112.102V115.928ZM232.77 108.621H233.854V111.141C234.318 110.945 234.816 110.848 235.348 110.848C237.293 110.848 238.266 111.832 238.266 113.801C238.266 115.934 237.244 117 235.201 117C234.318 117 233.508 116.916 232.77 116.748V108.621ZM243.861 110.848V117H242.777V110.848H243.861ZM243.861 108.621V109.646H242.777V108.621H243.861ZM245.742 109.852H246.422L246.656 110.848H248.32V111.727H246.826V115.26C246.826 115.834 247.074 116.121 247.57 116.121H248.32V117H247.289C246.258 117 245.742 116.447 245.742 115.342V109.852Z" fill="white"/>
<g filter="url(#filter1_d_1437_4203)">
<path d="M258.267 115.069C258.145 115.069 258.029 115.116 257.944 115.199C257.858 115.282 257.81 115.395 257.81 115.512V122.192C257.81 122.437 258.014 122.635 258.267 122.635C258.381 122.635 258.477 122.6 258.555 122.542L259.704 121.638L260.702 123.749C260.78 123.907 260.942 124 261.116 124C261.182 124 261.249 124 261.315 123.953L262.974 123.207C263.203 123.102 263.311 122.833 263.191 122.617L262.187 120.5L263.635 120.237C263.735 120.212 263.825 120.16 263.894 120.086C264.056 119.899 264.032 119.625 263.822 119.456L258.567 115.168L258.561 115.174C258.479 115.106 258.375 115.069 258.267 115.069ZM260.816 115.833V114.667H263.822V115.833H260.816ZM260.112 112.777L261.814 111.126L262.661 111.948L260.96 113.599L260.112 112.777ZM257.81 110H259.012V112.917H257.81V110ZM254.16 118.552L255.862 116.901L256.709 117.723L255.008 119.374L254.16 118.552ZM254.16 111.948L255.008 111.126L256.709 112.777L255.862 113.599L254.16 111.948ZM256.006 115.833H253V114.667H256.006V115.833Z" fill="white"/>
</g>
<defs>
<filter id="filter0_d_1437_4203" x="0" y="0" width="453" height="203" filterUnits="userSpaceOnUse" color-interpolation-filters="sRGB">
<feFlood flood-opacity="0" result="BackgroundImageFix"/>
<feColorMatrix in="SourceAlpha" type="matrix" values="0 0 0 0 0 0 0 0 0 0 0 0 0 0 0 0 0 0 127 0" result="hardAlpha"/>
<feOffset dx="10" dy="10"/>
<feGaussianBlur stdDeviation="25"/>
<feComposite in2="hardAlpha" operator="out"/>
<feColorMatrix type="matrix" values="0 0 0 0 0 0 0 0 0 0 0 0 0 0 0 0 0 0 0.5 0"/>
<feBlend mode="normal" in2="BackgroundImageFix" result="effect1_dropShadow_1437_4203"/>
<feBlend mode="normal" in="SourceGraphic" in2="effect1_dropShadow_1437_4203" result="shape"/>
</filter>
<filter id="filter1_d_1437_4203" x="249" y="106" width="19" height="22" filterUnits="userSpaceOnUse" color-interpolation-filters="sRGB">
<feFlood flood-opacity="0" result="BackgroundImageFix"/>
<feColorMatrix in="SourceAlpha" type="matrix" values="0 0 0 0 0 0 0 0 0 0 0 0 0 0 0 0 0 0 127 0" result="hardAlpha"/>
<feOffset/>
<feGaussianBlur stdDeviation="2"/>
<feComposite in2="hardAlpha" operator="out"/>
<feColorMatrix type="matrix" values="0 0 0 0 0 0 0 0 0 0 0 0 0 0 0 0 0 0 0.25 0"/>
<feBlend mode="normal" in2="BackgroundImageFix" result="effect1_dropShadow_1437_4203"/>
<feBlend mode="normal" in="SourceGraphic" in2="effect1_dropShadow_1437_4203" result="shape"/>
</filter>
</defs>
</svg>
